<mxfile host="app.diagrams.net" modified="2024-03-14T20:06:36.734Z" agent="Mozilla/5.0 (X11; Linux x86_64; rv:123.0) Gecko/20100101 Firefox/123.0" version="24.0.6" etag="3iNzn0GS5-7aoGC1x5TQ" type="github">
  <diagram name="Page-1" id="nix23zEbiony5d6UAfW1">
    <mxGraphModel>
      <root>
        <mxCell id="0" />
        <mxCell id="1" parent="0" />
      </root>
    </mxGraphModel>
  </diagram>
</mxfile>
